<?xml version="1.0" encoding="UTF-8" standalone="no"?>
<!-- Created with Inkscape (http://www.inkscape.org/) -->

<svg
   xmlns:dc="http://purl.org/dc/elements/1.1/"
   xmlns:cc="http://creativecommons.org/ns#"
   xmlns:rdf="http://www.w3.org/1999/02/22-rdf-syntax-ns#"
   xmlns:svg="http://www.w3.org/2000/svg"
   xmlns="http://www.w3.org/2000/svg"
   xmlns:sodipodi="http://sodipodi.sourceforge.net/DTD/sodipodi-0.dtd"
   xmlns:inkscape="http://www.inkscape.org/namespaces/inkscape"
   width="500"
   height="500"
   viewBox="0 0 132.29166 132.29167"
   version="1.1"
   id="svg8"
   inkscape:version="0.92.2 2405546, 2018-03-11"
   sodipodi:docname="hide.svg">
  <defs
     id="defs2" />
  <sodipodi:namedview
     id="base"
     pagecolor="#ffffff"
     bordercolor="#666666"
     borderopacity="1.0"
     inkscape:pageopacity="0.0"
     inkscape:pageshadow="2"
     inkscape:zoom="0.35"
     inkscape:cx="-322.85714"
     inkscape:cy="560"
     inkscape:document-units="px"
     inkscape:current-layer="layer1"
     showgrid="false"
     units="px"
     inkscape:window-width="1366"
     inkscape:window-height="714"
     inkscape:window-x="0"
     inkscape:window-y="0"
     inkscape:window-maximized="1" />
  <metadata
     id="metadata5">
    <rdf:RDF>
      <cc:Work
         rdf:about="">
        <dc:format>image/svg+xml</dc:format>
        <dc:type
           rdf:resource="http://purl.org/dc/dcmitype/StillImage" />
        <dc:title></dc:title>
      </cc:Work>
    </rdf:RDF>
  </metadata>
  <g
     inkscape:label="Layer 1"
     inkscape:groupmode="layer"
     id="layer1"
     transform="translate(0,-164.70832)">
    <path
       inkscape:connector-curvature="0"
       id="path8463"
       d="m 0.5718815,288.86436 v -3.50544 L 12.15663,273.77225 23.741379,262.18557 20.95336,259.9996 c -3.330042,-2.61096 -8.962307,-8.18448 -11.54939,-11.42893 -3.1742571,-3.98085 -6.2517291,-8.66473 -8.1215867,-12.361 L 0.568478,234.79846 1.8323389,232.51874 C 12.006398,214.16693 28.495083,201.22683 48.151692,196.16791 c 5.822814,-1.49858 9.684592,-2.00529 16.396438,-2.15143 8.059538,-0.17547 14.676189,0.63602 21.530466,2.64057 l 2.460621,0.71961 14.026363,-14.01907 14.02636,-14.01906 h 3.50559 3.5056 v 3.38356 3.38355 L 65.470672,234.23771 7.3382077,292.36978 H 3.9550446 0.5718815 Z M 36.309482,249.6195 c 1.997816,-1.99449 3.632393,-3.70696 3.632393,-3.8055 0,-0.0985 -0.613724,-1.1207 -1.363844,-2.27148 -2.353058,-3.60991 -3.907934,-7.58449 -4.71004,-12.03982 -0.831793,-4.62023 -0.377775,-11.42335 1.028337,-15.4087 0.206591,-0.58554 0.326021,-1.1142 0.265404,-1.17482 -0.185758,-0.18576 -4.062156,2.45137 -6.661757,4.53201 -2.992731,2.39527 -6.563121,5.88501 -8.897282,8.69628 -1.986703,2.39281 -4.75919,6.3351 -4.75919,6.76729 0,0.99681 5.636729,7.94868 9.378463,11.5666 2.329204,2.25212 7.886093,6.76449 8.330335,6.76449 0.06864,0 1.759356,-1.63186 3.757181,-3.62635 z m 29.265713,-31.47067 c -0.97119,-3.18891 -3.187426,-5.81088 -6.175005,-7.30551 -6.947295,-3.47559 -15.099032,0.14011 -17.339338,7.69086 -0.448027,1.51005 -0.511043,4.51172 -0.129483,6.16842 0.947614,4.11453 4.610056,7.84011 8.83726,8.9896 l 1.107285,0.30111 7.106883,-7.07757 7.106892,-7.0776 z m -5.702258,57.4524 c -4.810797,-0.44342 -11.136061,-1.69058 -14.977723,-2.95318 l -1.567329,-0.5151 4.977926,-4.98237 4.977919,-4.98237 0.895496,0.20524 c 3.348902,0.76754 6.599856,1.06141 11.84528,1.07076 8.478157,0.0151 14.995504,-1.19736 22.372291,-4.16204 11.156084,-4.48355 20.610523,-11.99948 27.666643,-21.99397 1.86916,-2.64752 1.90458,-2.19715 -0.42867,-5.44979 -3.88258,-5.41252 -9.56964,-11.09553 -14.41955,-14.40934 -0.94942,-0.6487 -1.72622,-1.24411 -1.72622,-1.32314 0,-0.079 1.96543,-2.10485 4.36762,-4.50184 l 4.36761,-4.35815 1.35334,1.02464 c 6.63778,5.02554 12.89758,11.63868 17.41739,18.40052 1.82246,2.72647 4.72823,7.79952 4.72823,8.25477 0,0.44473 -3.38398,6.21989 -5.11161,8.72354 -2.80032,4.05819 -5.19078,6.89984 -9.01592,10.71767 -4.30677,4.29852 -6.57881,6.1683 -11.33994,9.33215 -13.732894,9.12576 -30.321368,13.38243 -46.382783,11.902 z m 1.845473,-17.19629 c -0.812011,-0.12488 -2.015551,-0.35443 -2.67454,-0.5101 l -1.198156,-0.28304 20.021513,-20.02265 20.021521,-20.02265 0.299702,1.16894 c 0.556494,2.17054 0.878051,6.04983 0.730571,8.81341 -0.79767,14.94636 -11.287576,27.19184 -26.127799,30.50048 -2.060294,0.45933 -8.958094,0.68087 -11.072812,0.35561 z"
       style="fill:#e5e5e5;fill-opacity:1;stroke-width:0.2460625" />
  </g>
</svg>
