<?xml version="1.0" encoding="UTF-8" standalone="no"?>
<!-- Created with Inkscape (http://www.inkscape.org/) -->

<svg
   xmlns:dc="http://purl.org/dc/elements/1.1/"
   xmlns:cc="http://creativecommons.org/ns#"
   xmlns:rdf="http://www.w3.org/1999/02/22-rdf-syntax-ns#"
   xmlns:svg="http://www.w3.org/2000/svg"
   xmlns="http://www.w3.org/2000/svg"
   xmlns:sodipodi="http://sodipodi.sourceforge.net/DTD/sodipodi-0.dtd"
   xmlns:inkscape="http://www.inkscape.org/namespaces/inkscape"
   width="500"
   height="500"
   viewBox="0 0 132.29166 132.29167"
   version="1.1"
   id="svg8"
   inkscape:version="0.92.2 2405546, 2018-03-11"
   sodipodi:docname="callvalue.svg">
  <defs
     id="defs2">
    <filter
       x="-0.095602261"
       width="1.1912045"
       y="-0.095602261"
       height="1.1912045"
       style="color-interpolation-filters:sRGB"
       id="filter8473">
      <feGaussianBlur
         stdDeviation="0.13651472"
         id="feGaussianBlur8471" />
    </filter>
    <filter
       x="-0.34768651"
       width="1.695373"
       y="-0.34768651"
       height="1.695373"
       style="color-interpolation-filters:sRGB"
       id="filter8481">
      <feGaussianBlur
         stdDeviation="0.49647702"
         id="feGaussianBlur8479" />
    </filter>
    <filter
       x="-0.18867279"
       width="1.3773456"
       y="-0.18867279"
       height="1.3773456"
       style="color-interpolation-filters:sRGB"
       id="filter8487">
      <feGaussianBlur
         stdDeviation="0.26941426"
         id="feGaussianBlur8485" />
    </filter>
    <filter
       x="-0.060543586"
       width="1.1210872"
       y="-0.060543586"
       height="1.1210872"
       style="color-interpolation-filters:sRGB"
       id="filter8493">
      <feGaussianBlur
         stdDeviation="0.086452877"
         id="feGaussianBlur8491" />
    </filter>
    <filter
       x="-0.18773352"
       width="1.375467"
       y="-0.18773352"
       height="1.375467"
       style="color-interpolation-filters:sRGB"
       id="filter8499">
      <feGaussianBlur
         stdDeviation="0.26807304"
         id="feGaussianBlur8497" />
    </filter>
    <filter
       x="-0.060581045"
       width="1.1211621"
       y="-0.060581045"
       height="1.1211621"
       style="color-interpolation-filters:sRGB"
       id="filter8505">
      <feGaussianBlur
         stdDeviation="0.086506367"
         id="feGaussianBlur8503" />
    </filter>
    <filter
       x="-0.20029477"
       width="1.4005895"
       y="-0.20029477"
       height="1.4005895"
       style="color-interpolation-filters:sRGB"
       id="filter8517">
      <feGaussianBlur
         stdDeviation="0.2860098"
         id="feGaussianBlur8515" />
    </filter>
  </defs>
  <sodipodi:namedview
     id="base"
     pagecolor="#ffffff"
     bordercolor="#666666"
     borderopacity="1.0"
     inkscape:pageopacity="0.0"
     inkscape:pageshadow="2"
     inkscape:zoom="0.59"
     inkscape:cx="122.62349"
     inkscape:cy="338.67015"
     inkscape:document-units="px"
     inkscape:current-layer="layer1"
     showgrid="false"
     units="px"
     inkscape:window-width="1366"
     inkscape:window-height="714"
     inkscape:window-x="0"
     inkscape:window-y="0"
     inkscape:window-maximized="1" />
  <metadata
     id="metadata5">
    <rdf:RDF>
      <cc:Work
         rdf:about="">
        <dc:format>image/svg+xml</dc:format>
        <dc:type
           rdf:resource="http://purl.org/dc/dcmitype/StillImage" />
        <dc:title />
      </cc:Work>
    </rdf:RDF>
  </metadata>
  <g
     inkscape:label="Layer 1"
     inkscape:groupmode="layer"
     id="layer1"
     transform="translate(0,-164.70832)">
    <g
       id="g4809"
       transform="matrix(0.00638137,0,0,-0.00638137,15.843088,282.65458)"
       style="fill:#e5e5e5;fill-opacity:1;stroke:none">
      <path
         id="path4807"
         d="M 3950,15993 C 3302,15943 2693,15757 2141,15440 1408,15019 790,14358 425,13605 219,13179 96,12767 27,12267 L 5,12105 V 8130 C 5,4353 6,4148 23,4010 73,3614 161,3266 302,2915 870,1502 2169,485 3665,281 c 83,-12 208,-25 279,-31 179,-14 7683,-14 7867,0 354,27 675,90 1004,197 1290,418 2319,1448 2739,2740 106,326 169,648 196,1002 14,183 14,7673 0,7861 -48,654 -244,1286 -567,1833 -641,1086 -1699,1830 -2918,2052 -355,64 11,59 -4330,60 -2167,1 -3960,0 -3985,-2 z m 1015,-4953 -3740,-3740 -3,267 c -1,148 -1,1215 1,2373 2,2099 3,2105 24,2235 94,574 295,1037 635,1468 102,130 353,379 485,485 378,299 817,504 1281,597 274,55 173,53 2707,54 l 2350,1 z m 6886,3725 c 501,-58 953,-226 1364,-506 630,-428 1086,-1095 1250,-1826 61,-270 68,-345 72,-793 l 4,-415 -4884,-4883 -4884,-4884 -414,5 c -447,4 -523,11 -793,72 -1145,257 -2056,1192 -2290,2352 -48,234 -57,364 -54,785 l 3,386 365,-359 c 384,-378 442,-425 570,-470 94,-34 276,-34 371,-1 188,65 332,208 392,392 52,158 41,307 -34,460 -41,84 -49,92 -553,598 l -511,513 275,270 c 151,148 300,291 330,318 l 55,49 1060,-1052 C 4560,4769 4608,4723 4680,4687 c 99,-49 175,-67 283,-67 171,0 303,56 427,180 199,198 236,507 89,743 -20,33 -422,442 -1086,1108 l -1054,1055 326,317 c 179,174 329,317 333,316 4,0 201,-208 437,-460 237,-253 457,-485 490,-516 67,-61 189,-125 273,-142 77,-16 215,-13 286,5 101,26 193,80 277,164 123,121 179,255 179,430 0,169 -55,301 -183,437 -45,48 -265,278 -489,511 -225,233 -408,427 -408,431 0,3 143,149 318,324 l 317,317 1063,-1064 c 828,-827 1077,-1071 1125,-1100 238,-141 540,-103 735,93 188,188 233,463 115,704 -34,69 -86,123 -1109,1147 l -1074,1075 319,319 320,319 61,-57 c 34,-31 271,-258 527,-504 256,-246 487,-462 513,-480 144,-97 356,-122 526,-62 264,92 439,368 405,639 -22,170 -80,274 -244,430 -62,59 -287,275 -502,481 -214,205 -399,381 -410,392 -19,18 -15,22 300,338 l 320,320 1025,-1023 c 1103,-1101 1071,-1071 1225,-1120 105,-32 252,-30 360,7 109,38 181,83 259,166 177,188 215,453 100,693 -34,69 -77,113 -1072,1104 l -1037,1032 325,325 c 179,179 328,326 331,326 4,0 205,-211 448,-469 242,-258 463,-489 490,-513 226,-204 588,-194 814,22 114,108 168,215 189,374 19,147 -31,329 -122,441 -17,22 -140,153 -273,290 -133,138 -251,260 -261,273 l -19,22 h 229 c 138,0 279,-6 355,-15 z m 2686,-8200 c -3,-2599 1,-2400 -58,-2695 -89,-442 -311,-912 -605,-1280 -87,-109 -355,-377 -464,-464 -368,-294 -838,-516 -1280,-605 -296,-59 -67,-55 -2970,-58 l -2655,-3 4015,4015 4015,4015 3,-272 c 1,-150 1,-1344 -1,-2653 z"
         inkscape:connector-curvature="0"
         style="fill:#e5e5e5;fill-opacity:1" />
    </g>
  </g>
</svg>
