<?xml version="1.0" encoding="UTF-8"?>
<!DOCTYPE svg PUBLIC "-//W3C//DTD SVG 1.1//EN" "http://www.w3.org/Graphics/SVG/1.1/DTD/svg11.dtd">
<svg version="1.1" xmlns="http://www.w3.org/2000/svg" xmlns:xlink="http://www.w3.org/1999/xlink" x="0px" y="0px" width="1440" height="757" viewBox="0, 0, 1440, 757">




<path d="M 528, 398 m -172.51376756653366, 0 a 172.51376756653366,172.51376756653366 0 1,0 345.0275351330673,0 a 172.51376756653366,172.51376756653366 0 1,0 -345.0275351330673,0" style="fill-opacity:0; fill:#cc66cc; stroke-opacity:1; stroke:#cc66cc; stroke-width:15; stroke-linecap:butt; stroke-miterlimit:10; stroke-linejoin:miter; " />


<path d="M3099.759960137045 2094.6471959237447 L-2043.7599601370448 -1298.6471959237447 " style="stroke-opacity:1; stroke:#780013; stroke-width:15; stroke-linecap:butt; stroke-miterlimit:10; stroke-linejoin:miter; fill:none; " />


<path d="M 528, 398 m -6, 0 a 6,6 0 1,0 12,0 a 6,6 0 1,0 -12,0" style="fill-opacity:1; fill:#ffffff; stroke-opacity:1; stroke:#0000b2; stroke-width:2; stroke-linecap:butt; stroke-miterlimit:10; stroke-linejoin:miter; " />


<path d="M 384, 303 m -23, 0 a 23,23 0 1,0 46,0 a 23,23 0 1,0 -46,0" style="fill-opacity:1; fill:#ffffff; stroke-opacity:1; stroke:#0000b2; stroke-width:2; stroke-linecap:butt; stroke-miterlimit:10; stroke-linejoin:miter; " />
</svg>