<svg width="132.29166" height="132.29167" xmlns="http://www.w3.org/2000/svg">

 <metadata id="metadata5">image/svg+xml</metadata>
 <g>
  <title>background</title>
  <rect fill="none" id="canvas_background" height="402" width="582" y="-1" x="-1"/>
 </g>
 <g>
  <title>Layer 1</title>
  <g id="layer1">
   <g fill="#e5e5e5" transform="matrix(0.00638137,0,0,-0.00638137,15.843088,282.65458) " id="g4809">
    <path fill="#e5e5e5" d="m3950,41803.806641c-648,-50 -1257,-236 -1809,-553c-733,-421 -1351,-1082 -1716,-1835c-206,-426 -329,-838 -398,-1338l-22,-162l0,-3975c0,-3777 1,-3982 18,-4120c50,-396 138,-744 279,-1095c568,-1413 1867,-2430 3363,-2634c83,-12 208,-25 279,-31c179,-14 7683,-14 7867,0c354,27 675,90 1004,197c1290,418 2319,1448 2739,2740c106,326 169,648 196,1002c14,183 14,7673 0,7861c-48,654 -244,1286 -567,1833c-641,1086 -1699,1830 -2918,2052c-355,64 11,59 -4330,60c-2167,1 -3960,0 -3985,-2zm1015,-4953l-3740,-3740l-3,267c-1,148 -1,1215 1,2373c2,2099 3,2105 24,2235c94,574 295,1037 635,1468c102,130 353,379 485,485c378,299 817,504 1281,597c274,55 173,53 2707,54l2350,1l-3740,-3740zm6886,3725c501,-58 953,-226 1364,-506c630,-428 1086,-1095 1250,-1826c61,-270 68,-345 72,-793l4,-415l-4884,-4883l-4884,-4884l-414,5c-447,4 -523,11 -793,72c-1145,257 -2056,1192 -2290,2352c-48,234 -57,364 -54,785l3,386l365,-359c384,-378 442,-425 570,-470c94,-34 276,-34 371,-1c188,65 332,208 392,392c52,158 41,307 -34,460c-41,84 -49,92 -553,598l-511,513l275,270c151,148 300,291 330,318l55,49l1060,-1052c1015,-1007 1063,-1053 1135,-1089c99,-49 175,-67 283,-67c171,0 303,56 427,180c199,198 236,507 89,743c-20,33 -422,442 -1086,1108l-1054,1055l326,317c179,174 329,317 333,316c4,0 201,-208 437,-460c237,-253 457,-485 490,-516c67,-61 189,-125 273,-142c77,-16 215,-13 286,5c101,26 193,80 277,164c123,121 179,255 179,430c0,169 -55,301 -183,437c-45,48 -265,278 -489,511c-225,233 -408,427 -408,431c0,3 143,149 318,324l317,317l1063,-1064c828,-827 1077,-1071 1125,-1100c238,-141 540,-103 735,93c188,188 233,463 115,704c-34,69 -86,123 -1109,1147l-1074,1075l319,319l320,319l61,-57c34,-31 271,-258 527,-504c256,-246 487,-462 513,-480c144,-97 356,-122 526,-62c264,92 439,368 405,639c-22,170 -80,274 -244,430c-62,59 -287,275 -502,481c-214,205 -399,381 -410,392c-19,18 -15,22 300,338l320,320l1025,-1023c1103,-1101 1071,-1071 1225,-1120c105,-32 252,-30 360,7c109,38 181,83 259,166c177,188 215,453 100,693c-34,69 -77,113 -1072,1104l-1037,1032l325,325c179,179 328,326 331,326c4,0 205,-211 448,-469c242,-258 463,-489 490,-513c226,-204 588,-194 814,22c114,108 168,215 189,374c19,147 -31,329 -122,441c-17,22 -140,153 -273,290c-133,138 -251,260 -261,273l-19,22l229,0c138,0 279,-6 355,-15zm2686,-8200c-3,-2599 1,-2400 -58,-2695c-89,-442 -311,-912 -605,-1280c-87,-109 -355,-377 -464,-464c-368,-294 -838,-516 -1280,-605c-296,-59 -67,-55 -2970,-58l-2655,-3l4015,4015l4015,4015l3,-272c1,-150 1,-1344 -1,-2653z" id="path4807"/>
   </g>
  </g>
  <line stroke-linecap="undefined" stroke-linejoin="undefined" id="svg_1" y2="110.145828" x2="106.645813" y1="19.145828" x1="21.645813" stroke-width="20" stroke="#000" fill="none"/>
 </g>
</svg>