<svg width="550" height="400" xmlns="http://www.w3.org/2000/svg">
 <g>
  <title>background</title>
  <rect x="-1" y="-1" width="552" height="402" id="canvas_background" fill="none"/>
 </g>

 <g>
  <title>Layer 1</title>
  <g stroke="null" id="svg_3">
   <path stroke="null" fill-rule="evenodd" clip-rule="evenodd" d="m514.72149,92.97034c10.94708,10.65506 16.42251,23.51461 16.42251,38.57865c0,15.06405 -5.47543,27.90278 -16.42251,38.51742c-10.90681,10.65506 -24.09893,15.98259 -39.57636,15.98259c-15.47869,0 -28.6922,-5.32753 -39.64054,-15.98259c-10.90681,-10.61464 -16.35959,-23.45337 -16.35959,-38.51742c0,-15.06282 5.45278,-27.92237 16.35959,-38.57865c10.94834,-10.61464 24.16185,-15.92135 39.64054,-15.92135c15.47617,0 28.66955,5.30671 39.57636,15.92135z" id="svg_4" fill="#ffffff"/>
  </g>
  <g id="svg_5" stroke="null">
   <path fill-rule="evenodd" clip-rule="evenodd" d="m331.135,306.52111c0,16.72195 -5.91501,30.97427 -17.74191,42.75697c-11.7827,11.82768 -26.03502,17.74191 -42.75697,17.74191c-16.72195,0 -30.99677,-5.91423 -42.82446,-17.74191c-11.7827,-11.7827 -17.67366,-26.03502 -17.67366,-42.75697s5.89096,-30.99677 17.67366,-42.82445c11.82768,-11.78192 26.1025,-17.67366 42.82446,-17.67366c16.72195,0 30.97428,5.89174 42.75697,17.67366c11.82691,11.82768 17.74191,26.1025 17.74191,42.82445z" id="svg_6" fill="#BBBBBB" stroke="null"/>
  </g>
  <g id="svg_7" stroke="null">
   <polygon fill-rule="evenodd" clip-rule="evenodd" points="247.39010620117188,118.10804748535156 145.65707397460938,208.14500427246094 117.94801330566406,183.62074279785156 219.72901916503906,93.58464050292969 188.98458862304688,66.3315200805664 352.79400634765625,0.2980003356933594 278.1844787597656,145.31869506835938 " id="svg_8" fill="#BBBBBB" stroke="null"/>
  </g>
 </g>
</svg>